HIERARCHY
ROOT Pelvis
{
	OFFSET 0.000000 0.000000 0.000000
	CHANNELS 6 Xposition Yposition Zposition Xrotation Yrotation Zrotation
	JOINT LeftUpLeg_virtual
	{
		OFFSET 0.000000 0.000000 0.000000
		CHANNELS 3 Xrotation Yrotation Zrotation
		JOINT LeftUpLeg
		{
			OFFSET 18.735201 -5.666702 -4.541200
			CHANNELS 3 Xrotation Yrotation Zrotation
			JOINT LeftLeg
			{
				OFFSET -0.021200 -31.938179 0.493100
				CHANNELS 3 Xrotation Yrotation Zrotation
				JOINT LeftFoot
				{
					OFFSET 0.021200 -31.938179 -4.336299
					CHANNELS 3 Xrotation Yrotation Zrotation
					JOINT LeftToeBase
					{
						OFFSET 0.943001 -26.722000 15.023500
						CHANNELS 3 Xrotation Yrotation Zrotation
						End Site
						{
							OFFSET 0 0 0
						}
					}
				}
			}
		}
	}
	JOINT RightUpLeg_virtual
	{
		OFFSET 0.000000 0.000000 0.000000
		CHANNELS 3 Xrotation Yrotation Zrotation
		JOINT RightUpLeg
		{
			OFFSET -18.735201 -5.666702 -4.541200
			CHANNELS 3 Xrotation Yrotation Zrotation
			JOINT RightLeg
			{
				OFFSET 0.018946 -31.938133 0.493100
				CHANNELS 3 Xrotation Yrotation Zrotation
				JOINT RightFoot
				{
					OFFSET -0.018946 -31.938126 -4.336299
					CHANNELS 3 Xrotation Yrotation Zrotation
					JOINT RightToeBase
					{
						OFFSET -0.943001 -26.722004 15.023500
						CHANNELS 3 Xrotation Yrotation Zrotation
						End Site
						{
							OFFSET 0 0 0
						}
					}
				}
			}
		}
	}
	JOINT Hips_virtual
	{
		OFFSET 0.000000 0.000000 0.000000
		CHANNELS 3 Xrotation Yrotation Zrotation
		JOINT Hips
		{
			OFFSET -0.000000 -0.000000 -0.000000
			CHANNELS 3 Xrotation Yrotation Zrotation
			JOINT Spine
			{
				OFFSET 0.000000 10.199997 -0.299500
				CHANNELS 3 Xrotation Yrotation Zrotation
				JOINT Spine1
				{
					OFFSET 0.000000 11.900002 -1.516600
					CHANNELS 3 Xrotation Yrotation Zrotation
					JOINT Spine2
					{
						OFFSET 0.000000 13.600006 -2.842500
						CHANNELS 3 Xrotation Yrotation Zrotation
						JOINT Neck_virtual
						{
							OFFSET 0.000000 0.000000 0.000000
							CHANNELS 3 Xrotation Yrotation Zrotation
							JOINT Neck
							{
								OFFSET 0.000000 9.624100 -2.890100
								CHANNELS 3 Xrotation Yrotation Zrotation
								JOINT Head
								{
									OFFSET 0.000000 14.068802 -1.351900
									CHANNELS 3 Xrotation Yrotation Zrotation
									End Site
									{
										OFFSET 0 0 0
									}
								}
							}
						}
						JOINT LeftShoulder_virtual
						{
							OFFSET 0.000000 0.000000 0.000000
							CHANNELS 3 Xrotation Yrotation Zrotation
							JOINT LeftShoulder
							{
								OFFSET 15.263000 10.923401 -0.547700
								CHANNELS 3 Xrotation Yrotation Zrotation
								JOINT LeftArm
								{
									OFFSET 25.438599 -2.830597 -13.032500
									CHANNELS 3 Xrotation Yrotation Zrotation
									JOINT LeftForeArm
									{
										OFFSET 29.960503 0.000000 0.000000
										CHANNELS 3 Xrotation Yrotation Zrotation
										JOINT LeftHand
										{
											OFFSET 27.849251 0.000000 0.000000
											CHANNELS 3 Xrotation Yrotation Zrotation
											End Site
											{
												OFFSET 0 0 0
											}
										}
									}
								}
							}
						}
						JOINT RightShoulder_virtual
						{
							OFFSET 0.000000 0.000000 0.000000
							CHANNELS 3 Xrotation Yrotation Zrotation
							JOINT RightShoulder
							{
								OFFSET -15.263000 10.923401 -0.547700
								CHANNELS 3 Xrotation Yrotation Zrotation
								JOINT RightArm
								{
									OFFSET -25.438599 -2.830597 -13.032500
									CHANNELS 3 Xrotation Yrotation Zrotation
									JOINT RightForeArm
									{
										OFFSET -29.960503 0.000000 0.000000
										CHANNELS 3 Xrotation Yrotation Zrotation
										JOINT RightHand
										{
											OFFSET -27.849251 0.000000 0.000000
											CHANNELS 3 Xrotation Yrotation Zrotation
											End Site
											{
												OFFSET 0 0 0
											}
										}
									}
								}
							}
						}
					}
				}
			}
		}
	}
}
MOTION
Frames: 4
Frame Time: 0.03333333
9.094810 88.070297 111.789703 0.000000 0.000000 0.000000 24.740185 30.459843 -8.646513 -49.418174 4.015120 13.382526 47.415791 10.461709 -6.856827 -4.802119 28.539990 -3.227153 0.000000 0.000000 0.000000 25.033837 30.560647 -8.857400 -53.568030 -5.552770 -6.567578 37.520797 -5.558537 -4.438165 -0.139971 -6.976825 6.571475 0.000000 0.000000 0.000000 25.076191 31.107274 -8.414066 -0.261658 -0.695016 -1.074961 11.557764 -1.366660 3.657656 6.380712 -2.611676 1.117752 0.000000 0.000000 0.000000 6.168446 -2.288108 0.747238 -2.787074 0.427923 1.215630 0.000000 0.000000 0.000000 6.866116 -2.126671 0.555312 2.267346 -6.287858 -5.329397 -30.578313 -24.311942 -37.566010 -0.042002 -26.615354 -0.408326 0.000000 0.000000 0.000000 6.378240 -2.207513 0.747806 2.904337 5.560449 3.703445 -13.573822 -8.075495 54.099541 1.642110 63.066791 -1.283357 0.000000 0.000000 0.000000 
9.364769 90.004562 113.977509 0.000000 0.000000 0.000000 24.840189 30.301595 -8.362721 -49.296040 4.579951 11.385814 38.250863 10.504536 -5.749077 1.467027 29.057469 -6.848857 0.000000 0.000000 0.000000 25.270561 31.008683 -8.688019 -48.715761 -6.235678 -5.928316 33.249190 -6.308724 -4.994637 0.174218 -8.108439 6.295882 0.000000 0.000000 0.000000 25.075552 32.023239 -8.443943 -0.277244 -0.691727 -0.955897 11.070162 0.032379 3.540907 6.516416 -2.249971 1.003500 0.000000 0.000000 0.000000 6.499279 -1.878669 0.654323 -2.660195 0.098081 0.961133 0.000000 0.000000 0.000000 6.903285 -1.677342 0.481596 2.275990 -5.985963 -5.603193 -27.298354 -24.668987 -37.075606 0.099834 -26.203633 -0.490132 0.000000 0.000000 0.000000 6.458129 -1.812782 0.665388 2.706576 6.243712 4.035406 -14.814397 -10.553308 55.337073 1.456019 67.027290 -1.162526 0.000000 0.000000 0.000000 
9.710309 90.961861 116.201691 0.000000 0.000000 0.000000 24.855093 30.316443 -8.340848 -50.161015 4.662481 9.994302 31.714771 10.368828 -4.702451 7.485867 29.592170 -8.953574 0.000000 0.000000 0.000000 25.386338 31.668558 -8.851607 -44.383730 -7.412095 -5.087052 31.220269 -6.999639 -5.183333 -3.238794 -9.615038 5.592062 0.000000 0.000000 0.000000 24.977131 32.800395 -8.690255 -0.281936 -0.739571 -0.904778 10.594189 1.380448 3.754670 6.672399 -1.791314 0.717714 0.000000 0.000000 0.000000 6.881755 -1.376207 0.404564 -2.477932 -0.235605 0.623431 0.000000 0.000000 0.000000 6.920354 -1.166671 0.233468 2.241639 -5.589292 -5.657268 -24.414004 -24.096325 -36.425771 0.253618 -27.176588 -0.407459 0.000000 0.000000 0.000000 6.552297 -1.317572 0.405301 2.526616 7.076365 4.223297 -15.475930 -12.213609 56.719486 1.382929 71.547126 -1.133103 0.000000 0.000000 0.000000 
10.148000 90.824570 118.650146 0.000000 0.000000 0.000000 24.725094 30.917818 -8.756716 -52.898145 4.685274 9.782957 29.740187 10.022858 -4.375715 10.921222 30.149947 -9.072800 0.000000 0.000000 0.000000 25.148307 32.660564 -9.319211 -40.668452 -9.058284 -4.115235 31.748932 -7.487422 -4.911638 -9.655037 -11.029452 4.967446 0.000000 0.000000 0.000000 24.695650 33.575216 -9.154024 -0.373243 -0.731976 -0.884086 10.174603 2.610331 4.170839 6.783107 -1.232851 0.306571 0.000000 0.000000 0.000000 7.161866 -0.796316 0.038384 -2.295586 -0.560232 0.238371 0.000000 0.000000 0.000000 6.890279 -0.595145 -0.153952 2.187433 -5.021082 -5.415700 -22.133228 -22.528696 -35.748698 0.411375 -29.547562 -0.152707 0.000000 0.000000 0.000000 6.644872 -0.729931 -0.003120 2.410656 7.904418 4.005892 -15.897610 -12.814820 58.481541 1.478006 75.684725 -1.297460 0.000000 0.000000 0.000000 
